<svg version="1.1" id="Livello_1" xmlns="http://www.w3.org/2000/svg" xmlns:xlink="http://www.w3.org/1999/xlink" x="0px" y="0px"
	 viewBox="0 0 841.89 595.28" style="enable-background:new 0 0 841.89 595.28;" xml:space="preserve">
<g>
	<g>
		<path d="M420.8,332.36c0,72.01,0,144.02,0,216.03c0,1.34-0.01,2.68-0.1,4.01c-0.07,1.05-0.64,1.71-1.79,1.7
			c-1.15-0.01-1.69-0.67-1.79-1.71c-0.1-1.02-0.11-2.06-0.12-3.08c-0.04-12.77,0.06-25.55-0.12-38.32
			c-1.03-74.78-0.24-149.57-0.46-224.35c-0.16-56.14,0.01-112.29-0.01-168.44c0-13.27-0.14-26.55-0.25-39.82
			c-0.03-4.14,1.02-7.83,3.4-11.31c5.03-7.37,16.08-7.53,21.35-0.24c3.74,5.17,4.94,11.24,6.51,17.19
			c1.03,3.92,2.39,7.66,4.81,10.95c1.95,2.64,4.18,2.57,6.33,0.06c2.59-3.02,3.43-6.78,4.45-10.42
			c3.03-10.85,7.26-21.22,12.63-31.09c2.26-4.15,5.32-7.77,9.44-10.41c2.79-1.79,5.66-2.24,8.45-0.82c2.81,1.42,4.17,3.91,4.08,7.35
			c-0.46,17.06-1.5,34.09-2.42,51.13c-0.32,5.86-0.31,11.74-0.31,17.61c-0.02,140.11-0.03,280.21-0.06,420.32
			c0,4.32-0.28,8.64-0.45,12.96c-0.05,1.16-0.15,2.37-1.72,2.44c-1.73,0.08-1.97-1.16-2.04-2.47c-0.05-0.92-0.03-1.85-0.03-2.78
			c0-142.89-0.1-285.78,0.18-428.66c0.02-11.95,1.02-23.98,1.96-35.96c0.6-7.68,0.89-15.39,1.34-23.09
			c0.17-2.97,0.55-5.95,0.56-8.92c0.01-2.4,0.32-5.22-2.61-6.36c-3.17-1.23-5.73,0.48-7.72,2.59c-4.79,5.08-7.93,11.18-10.57,17.62
			c-3.37,8.2-6.18,16.58-8.9,25c-0.87,2.71-2.23,5.34-4.54,7.24c-4.25,3.51-9.47,2.17-12.32-3.05c-2.95-5.4-4.03-11.42-5.86-17.2
			c-1.33-4.21-2.75-8.19-6.75-11.04c-6.06-4.31-11.82-0.83-13.85,4.6c-2.49,6.68-2.83,13.66-2.35,20.71c0.54,7.9,1.5,15.8,1.52,23.7
			c0.12,72.11,0.07,144.23,0.07,216.34C420.74,332.36,420.77,332.36,420.8,332.36z"/>
		<path d="M487.11,69.21c-8.46,10.64-8.4,22.41-4.59,35.2C474.37,96.2,478.81,71.56,487.11,69.21z"/>
		<path d="M430.61,106.76c1.6-10.26,2.64-20.25-7.16-27.81c4.07,0.43,6.97,2.85,8.92,8.18C434.81,93.8,434.79,100.48,430.61,106.76z
			"/>
	</g>
</g>
</svg>